<?xml version="1.0" standalone="no"?>
<!DOCTYPE svg PUBLIC "-//W3C//DTD SVG 20010904//EN"
 "http://www.w3.org/TR/2001/REC-SVG-20010904/DTD/svg10.dtd">
<svg version="1.0" xmlns="http://www.w3.org/2000/svg"
 width="32.000000pt" height="32.000000pt" viewBox="0 0 32.000000 32.000000"
 preserveAspectRatio="xMidYMid meet">

<g transform="translate(0.000000,32.000000) scale(0.100000,-0.100000)"
fill="#000000" stroke="none">
<path d="M114 234 c19 -50 18 -64 -12 -101 -16 -21 -27 -44 -25 -50 8 -22 41
-14 61 14 l20 28 13 -28 c14 -31 56 -40 44 -9 -28 69 -28 71 0 107 14 19 23
40 20 45 -9 15 -41 12 -55 -5 -12 -14 -15 -14 -30 0 -22 20 -44 20 -36 -1z"/>
</g>
</svg>
