<?xml version="1.0" standalone="no"?>
<!DOCTYPE svg PUBLIC "-//W3C//DTD SVG 20010904//EN"
 "http://www.w3.org/TR/2001/REC-SVG-20010904/DTD/svg10.dtd">
<svg version="1.0" xmlns="http://www.w3.org/2000/svg"
 width="500.000000pt" height="500.000000pt" viewBox="0 0 500.000000 500.000000"
 preserveAspectRatio="xMidYMid meet">

<g transform="translate(0.000000,500.000000) scale(0.100000,-0.100000)"
fill="#000000" stroke="none">
<path d="M3034 2966 c-45 -45 -46 -86 -2 -126 17 -16 35 -27 39 -24 4 2 11 -1
15 -7 5 -8 3 -9 -7 -4 -12 8 -12 6 0 -8 34 -43 132 0 146 64 7 31 -18 75 -36
63 -5 -3 -9 3 -9 14 0 32 -37 62 -76 62 -28 0 -44 -8 -70 -34z"/>
<path d="M614 2963 c3 -10 39 -97 79 -194 l74 -177 -163 -213 -163 -214 46 -5
c41 -4 44 -7 30 -19 -10 -7 -17 -19 -17 -25 0 -6 5 -4 10 4 5 8 10 10 10 4 0
-7 27 -12 74 -13 l75 -2 92 135 92 135 17 -37 c9 -20 29 -69 44 -108 25 -63
32 -73 58 -78 18 -4 32 -14 35 -26 5 -18 14 -20 85 -20 72 0 79 2 74 18 -3 10
-44 107 -90 216 l-84 199 117 156 c166 221 165 221 114 221 -27 0 -28 3 -7 35
l16 25 -90 0 c-104 0 -87 13 -179 -133 -31 -49 -59 -85 -63 -80 -4 4 -15 32
-25 61 -9 29 -23 56 -31 59 -8 3 -11 9 -8 14 3 5 0 9 -5 9 -6 0 -17 16 -25 35
l-15 35 -91 0 c-82 0 -91 -2 -86 -17z m630 -63 c-9 -8 -54 -7 -54 2 0 5 13 7
30 6 16 -1 27 -5 24 -8z m-694 -765 c-7 -9 -15 -13 -18 -10 -3 2 1 11 8 20 7
9 15 13 18 10 3 -2 -1 -11 -8 -20z"/>
<path d="M1397 2696 c-88 -24 -175 -116 -203 -214 -24 -82 -22 -168 4 -223 21
-44 101 -122 152 -149 40 -21 157 -17 211 7 51 23 129 88 129 108 0 12 -27 30
-42 27 -4 -1 -3 10 3 25 12 33 4 39 -66 48 -50 6 -53 5 -88 -30 -31 -31 -42
-36 -74 -33 -37 3 -38 4 -41 46 l-3 42 174 0 c173 0 175 0 181 23 9 35 7 94
-5 142 -12 49 -92 146 -141 171 -40 21 -135 26 -191 10z m155 -171 c5 -25 4
-25 -61 -25 l-66 1 28 24 c18 16 40 25 61 25 28 0 34 -4 38 -25z"/>
<path d="M2027 2696 c-21 -8 -47 -22 -58 -32 -18 -16 -19 -16 -19 4 0 21 -5
22 -74 22 l-74 0 -12 -72 c-6 -40 -15 -93 -21 -118 -5 -25 -16 -92 -24 -150
-8 -58 -18 -124 -21 -147 -7 -42 -6 -43 22 -43 39 0 74 -10 74 -22 0 -5 -9 -4
-20 2 -16 9 -20 8 -20 -5 0 -9 5 -13 10 -10 6 3 10 1 10 -4 0 -7 24 -11 59
-11 l59 0 7 58 c16 132 44 271 60 306 17 36 58 66 90 66 11 0 15 -11 15 -40 0
-35 -32 -256 -45 -317 -5 -20 -1 -23 24 -23 28 0 47 -22 35 -41 -3 -5 25 -9
64 -9 l69 0 11 58 c6 31 21 119 33 195 26 171 21 204 -48 278 -64 67 -125 83
-206 55z m113 -551 c0 -12 -19 -12 -23 0 -4 9 -1 12 9 8 7 -3 14 -7 14 -8z"/>
<path d="M2620 2698 c-19 -5 -48 -19 -64 -31 l-29 -21 6 23 c5 21 4 22 -71 19
l-77 -3 -36 -225 c-20 -124 -40 -242 -43 -262 l-6 -38 37 0 c37 0 66 -11 64
-24 -3 -22 4 -26 48 -26 56 0 52 -8 71 125 18 124 33 199 46 232 24 56 96 95
110 58 3 -8 -6 -88 -20 -179 -14 -90 -26 -169 -26 -175 0 -6 14 -11 31 -11 18
0 38 -7 45 -17 13 -17 14 -17 8 0 -3 9 -2 17 4 17 8 0 9 -14 3 -38 -1 -1 -9 2
-19 7 -14 7 -19 6 -19 -3 0 -10 20 -14 71 -15 l71 -2 29 183 c37 237 35 267
-28 340 -63 73 -119 91 -206 66z"/>
<path d="M4058 2700 c-15 -4 -41 -18 -58 -30 l-30 -21 0 20 c0 19 -6 21 -74
21 l-73 0 -7 -37 c-6 -40 -62 -391 -72 -455 l-6 -38 47 0 c25 0 44 -4 41 -9
-4 -5 0 -12 6 -14 8 -4 7 -6 -4 -6 -9 -1 -18 5 -21 12 -3 6 -5 3 -4 -8 1 -18
8 -21 68 -24 78 -3 66 -26 100 189 24 156 46 216 84 230 15 6 28 10 31 10 10
0 2 -103 -16 -215 -26 -161 -26 -165 8 -165 15 -1 38 -7 52 -16 22 -13 22 -14
3 -9 -12 3 -24 1 -28 -4 -3 -7 0 -8 9 -5 9 3 16 1 16 -5 0 -7 23 -11 60 -11
56 0 60 2 60 23 0 50 50 319 65 347 20 40 62 67 78 51 8 -8 4 -54 -16 -188
-15 -97 -26 -177 -24 -179 1 -2 24 -4 50 -6 41 -3 47 -6 47 -25 0 -21 5 -23
49 -23 57 0 47 -27 86 234 29 190 27 222 -19 274 -66 75 -74 80 -119 87 -55 9
-109 -7 -158 -46 l-36 -28 -29 30 c-41 43 -104 58 -166 39z"/>
<path d="M2976 2663 c-12 -58 -76 -465 -76 -484 0 -15 7 -19 33 -20 36 0 85
-17 55 -18 -10 -1 -18 -6 -18 -12 0 -5 -5 -7 -12 -3 -6 4 -8 3 -5 -3 3 -5 36
-9 73 -9 l67 1 38 235 c40 244 42 281 18 288 -11 3 -11 1 1 -7 8 -6 13 -11 10
-12 -3 0 -12 -2 -21 -4 -13 -2 -16 5 -13 36 l3 39 -73 0 c-73 0 -75 0 -80 -27z"/>
<path d="M3216 2527 c-41 -258 -37 -284 60 -371 79 -70 189 -83 298 -36 93 40
125 105 160 323 29 174 31 197 16 197 -5 0 -7 -8 -4 -17 5 -17 5 -17 -9 -1 -8
10 -18 14 -22 10 -4 -4 -5 8 -2 26 l7 32 -75 0 c-87 0 -74 21 -106 -180 -25
-161 -44 -211 -87 -229 -38 -16 -62 -9 -62 18 0 12 9 76 20 144 11 68 19 140
18 160 -3 33 -4 34 -20 20 -17 -15 -18 -13 -18 25 l0 42 -74 0 -73 0 -27 -163z"/>
<path d="M2363 2132 c0 -10 7 -19 14 -19 17 0 17 12 -1 27 -12 9 -15 8 -13 -8z"/>
<path d="M4426 2125 c-3 -8 -1 -15 4 -15 6 0 10 7 10 15 0 8 -2 15 -4 15 -2 0
-6 -7 -10 -15z"/>
</g>
</svg>
